	<svg viewBox="-227.81947565543072 -95.343778302736 532.838202247191 190.687556605472" xmlns="http://www.w3.org/2000/svg" xmlns:xlink="http://www.w3.org/1999/xlink" version="1.1" class="jsx-2263963463 artboard-inner" >
		<g transform="translate(-0.6242197253433208 49.87515605493133) scale(1.7339436815092242)">
			<g id="line1" fill="#2958F5">
				<path d="M13.248 0.072L13.248-57.528L0.360-57.528L0.360 0.072Z">
				</path>
				<path d="M25.258-17.280L41.026-17.280L41.026-26.640L25.258-26.640Z">
				</path>
				<path d="M64.195 0.072L64.195-57.528L51.307-57.528L51.307 0.072Z">
				</path>
				<path d="M123.437 0L123.437-57.600L74.405-57.600L74.405 0ZM87.293-12.888L87.293-44.712L110.549-44.712L110.549-12.888Z">
				</path>
				<path d="M176.270-57.600L130.190-57.600L130.190-44.712L146.750-44.712L146.750 0L159.710 0L159.710-44.712L176.270-44.712Z">
				</path>
			</g>
		</g>
		<g transform="translate(-251.45842696629214 -118.19476406892736) scale(2.626550145651269)" id="logomark">
			<g >
				<path fill="#FE5700" d="M71 48.7V18.2L54.8 9H38.7L63 22.8v30.5zM29 66l25.8 15h-.1l.4.3 16.6-9.6 8-13.9L55.3 72 29 56.8z">
				</path>
				<path fill="#2958F5" d="M61.2 57h.1l-14.4 8.2 7.9 4.6L81 54.5V35.2l-8-13.9v28.5zM61 23.9L34.8 8.7l-16.6 9.6-8 14L35 18l12 7h-.2L61 33.2z">
				</path>
				<path fill="#FE5700" d="M35.2 20.3L9 35.6v19.2l8 13.9V40.2l11.8-7 14.4-8.3z">
				</path>
				<path fill="#2958F5" d="M19 41.3v30.5L35.2 81h16.2L27 67.2V36.7z">
				</path>
			</g>
		</g>
	</svg>
