<svg id="en7gqu6r71g71" xmlns="http://www.w3.org/2000/svg" xmlns:xlink="http://www.w3.org/1999/xlink" viewBox="0 0 613 459" shape-rendering="geometricPrecision" text-rendering="geometricPrecision"><style><![CDATA[#en7gqu6r71g716_tr {animation: en7gqu6r71g716_tr__tr 6000ms linear infinite normal forwards}@keyframes en7gqu6r71g716_tr__tr { 0% {transform: translate(305.239273px,151.551674px) rotate(0deg)} 100% {transform: translate(305.239273px,151.551674px) rotate(360deg)} }]]></style><defs><linearGradient id="en7gqu6r71g75-fill" x1="-291.314821" y1="-9.187042" x2="-197.672493" y2="-9.187042" spreadMethod="pad" gradientUnits="userSpaceOnUse"><stop id="en7gqu6r71g75-fill-0" offset="0%" stop-color="rgb(33,51,59)"/><stop id="en7gqu6r71g75-fill-1" offset="100%" stop-color="rgb(33,51,59)"/></linearGradient><linearGradient id="en7gqu6r71g78-fill" x1="-291.880724" y1="-14.488610" x2="-229.148616" y2="-14.488610" spreadMethod="pad" gradientUnits="userSpaceOnUse"><stop id="en7gqu6r71g78-fill-0" offset="0%" stop-color="rgb(33,51,59)"/><stop id="en7gqu6r71g78-fill-1" offset="100%" stop-color="rgb(33,51,59)"/></linearGradient><linearGradient id="en7gqu6r71g711-fill" x1="-293.424326" y1="-16.699800" x2="-261.523505" y2="-16.699800" spreadMethod="pad" gradientUnits="userSpaceOnUse"><stop id="en7gqu6r71g711-fill-0" offset="0%" stop-color="rgb(33,51,59)"/><stop id="en7gqu6r71g711-fill-1" offset="100%" stop-color="rgb(33,51,59)"/></linearGradient><linearGradient id="en7gqu6r71g713-fill" x1="-379.329081" y1="50.275263" x2="-58.026085" y2="50.275263" spreadMethod="pad" gradientUnits="userSpaceOnUse"><stop id="en7gqu6r71g713-fill-0" offset="0%" stop-color="rgb(33,51,59)"/><stop id="en7gqu6r71g713-fill-1" offset="100%" stop-color="rgb(33,51,59)"/></linearGradient><linearGradient id="en7gqu6r71g715-fill" x1="-473.190163" y1="35.179044" x2="71.237578" y2="35.179044" spreadMethod="pad" gradientUnits="userSpaceOnUse"><stop id="en7gqu6r71g715-fill-0" offset="0%" stop-color="rgb(33,51,59)"/><stop id="en7gqu6r71g715-fill-1" offset="100%" stop-color="rgb(33,51,59)"/></linearGradient></defs><g id="en7gqu6r71g72"><g id="en7gqu6r71g73" transform="matrix(1 0 0 1 551 149)"><g id="en7gqu6r71g74"><path id="en7gqu6r71g75" d="M-207.200000,5.800000C-207.700000,5.800000,-208.100000,5.600000,-208.500000,5.300000C-218.100000,-4.300000,-230.900000,-9.600000,-244.500000,-9.600000C-258.100000,-9.600000,-270.900000,-4.300000,-280.500000,5.300000C-281.200000,6,-282.400000,6,-283.100000,5.300000L-290.800000,-2.400000C-291.500000,-3.100000,-291.500000,-4.300000,-290.800000,-5C-278.400000,-17.400000,-262,-24.200000,-244.500000,-24.200000C-227,-24.200000,-210.600000,-17.400000,-198.200000,-5C-197.500000,-4.300000,-197.500000,-3.100000,-198.200000,-2.400000L-205.900000,5.300000C-206.300000,5.600000,-206.700000,5.800000,-207.200000,5.800000Z" fill="url(#en7gqu6r71g75-fill)" stroke="none" stroke-width="1"/></g></g><g id="en7gqu6r71g76" transform="matrix(1 0 0 1 567.50000000000000 172.50000000000000)"><g id="en7gqu6r71g77"><path id="en7gqu6r71g78" d="M-238.700000,-2.700000C-239.200000,-2.700000,-239.600000,-2.900000,-240,-3.200000C-245.500000,-8.700000,-252.800000,-11.700000,-260.600000,-11.700000C-268.400000,-11.700000,-275.700000,-8.700000,-281.200000,-3.200000C-281.900000,-2.500000,-283.100000,-2.500000,-283.800000,-3.200000L-291.500000,-10.900000C-292.200000,-11.600000,-292.200000,-12.800000,-291.500000,-13.500000C-283.300000,-21.700000,-272.300000,-26.300000,-260.700000,-26.300000C-249.100000,-26.300000,-238.100000,-21.800000,-229.900000,-13.500000C-229.200000,-12.800000,-229.200000,-11.600000,-229.900000,-10.900000L-237.600000,-3.200000C-237.700000,-2.900000,-238.200000,-2.700000,-238.700000,-2.700000L-238.700000,-2.700000Z" fill="url(#en7gqu6r71g78-fill)" stroke="none" stroke-width="1"/></g></g><g id="en7gqu6r71g79" transform="matrix(1 0 0 1 584.50000000000000 197)"><g id="en7gqu6r71g710"><path id="en7gqu6r71g711" d="M-277.500000,-4.900000C-278,-4.900000,-278.400000,-5.100000,-278.800000,-5.400000L-292.900000,-19.500000C-293.600000,-20.200000,-293.600000,-21.400000,-292.900000,-22.100000C-288.800000,-26.200000,-283.300000,-28.500000,-277.500000,-28.500000C-271.700000,-28.500000,-266.200000,-26.200000,-262.100000,-22.100000C-261.400000,-21.400000,-261.400000,-20.200000,-262.100000,-19.500000L-276.200000,-5.400000C-276.500000,-5.100000,-277,-4.900000,-277.500000,-4.900000Z" fill="url(#en7gqu6r71g711-fill)" stroke="none" stroke-width="1"/></g></g></g><g id="en7gqu6r71g712" transform="matrix(1.20730000000000 0 0 1.20730000000000 605 274)"><path id="en7gqu6r71g713" d="M-352.900000,35.400000L-352.900000,39L-362.700000,39L-362.700000,35.200000C-362.700000,34.800000,-362.800000,34.500000,-363.100000,34.200000C-363.400000,33.900000,-363.700000,33.800000,-364.100000,33.800000L-364.100000,33.800000L-368.200000,33.800000C-368.600000,33.800000,-368.900000,33.900000,-369.200000,34.200000C-369.500000,34.500000,-369.600000,34.800000,-369.600000,35.200000L-369.600000,35.200000L-369.600000,43.700000C-369.600000,44.100000,-369.500000,44.400000,-369.200000,44.700000C-368.900000,45,-368.600000,45.100000,-368.200000,45.100000L-368.200000,45.100000L-361.600000,45.100000C-355.500000,45.200000,-352.500000,48.400000,-352.500000,54.800000L-352.500000,54.800000L-352.500000,65C-352.500000,71.500000,-355.500000,74.700000,-361.600000,74.700000L-361.600000,74.700000L-370.300000,74.700000C-376.400000,74.700000,-379.400000,71.500000,-379.400000,65L-379.400000,65L-379.400000,60.100000L-369.600000,60.100000L-369.600000,65.400000C-369.600000,65.800000,-369.500000,66.100000,-369.200000,66.400000C-368.900000,66.700000,-368.600000,66.800000,-368.200000,66.800000L-368.200000,66.800000L-363.600000,66.800000C-363.200000,66.800000,-362.900000,66.700000,-362.600000,66.400000C-362.300000,66.100000,-362.200000,65.800000,-362.200000,65.400000L-362.200000,65.400000L-362.200000,56C-362.200000,55.600000,-362.300000,55.300000,-362.600000,55C-362.900000,54.700000,-363.200000,54.600000,-363.600000,54.600000L-363.600000,54.600000L-370.200000,54.600000C-376.300000,54.600000,-379.300000,51.400000,-379.300000,44.900000L-379.300000,44.900000L-379.300000,35.400000C-379.300000,28.900000,-376.300000,25.700000,-370.200000,25.700000L-370.200000,25.700000L-362,25.700000C-356,25.700000,-352.900000,28.900000,-352.900000,35.400000L-352.900000,35.400000ZM-314.200000,37.400000L-313.500000,37.400000C-307.400000,37.400000,-304.400000,40.600000,-304.400000,47.100000L-304.400000,47.100000L-304.400000,74.100000L-314.300000,74.100000L-314.300000,46C-314.300000,45.600000,-314.400000,45.300000,-314.700000,45C-315,44.700000,-315.300000,44.600000,-315.700000,44.600000L-315.700000,44.600000L-318.900000,44.600000C-319.300000,44.600000,-319.600000,44.700000,-319.900000,45C-320.200000,45.300000,-320.300000,45.600000,-320.300000,46L-320.300000,46L-320.300000,74.100000L-330.200000,74.100000L-330.200000,46C-330.200000,45.600000,-330.300000,45.300000,-330.600000,45C-330.900000,44.700000,-331.200000,44.600000,-331.600000,44.600000L-331.600000,44.600000L-334.800000,44.600000C-335.200000,44.600000,-335.500000,44.700000,-335.800000,45C-336.100000,45.300000,-336.200000,45.600000,-336.200000,46L-336.200000,46L-336.200000,74.100000L-346.100000,74.100000L-346.100000,38.200000L-337.100000,38.200000L-337.100000,40C-335.600000,38.300000,-333.300000,37.400000,-330.200000,37.400000L-330.200000,37.400000L-329.500000,37.400000C-325.900000,37.400000,-323.300000,38.500000,-321.900000,40.800000L-321.900000,40.800000C-320.300000,38.500000,-317.800000,37.400000,-314.200000,37.400000L-314.200000,37.400000ZM-279,40.800000L-279,38.100000L-270.700000,38.100000L-270.700000,74L-279,74L-279,71.300000C-280.500000,73.600000,-283.100000,74.700000,-286.600000,74.700000L-286.600000,74.700000L-288.100000,74.700000C-294.200000,74.700000,-297.200000,71.500000,-297.200000,65L-297.200000,65L-297.200000,47C-297.200000,40.500000,-294.200000,37.300000,-288.100000,37.300000L-288.100000,37.300000L-286.600000,37.300000C-283.100000,37.400000,-280.600000,38.500000,-279,40.800000L-279,40.800000ZM-280.600000,66.300000L-280.600000,66.300000L-280.600000,46C-280.600000,45.600000,-280.700000,45.300000,-281,45C-281.300000,44.700000,-281.600000,44.600000,-282,44.600000L-282,44.600000L-286.100000,44.600000C-286.500000,44.600000,-286.800000,44.700000,-287.100000,45C-287.400000,45.300000,-287.500000,45.600000,-287.500000,46L-287.500000,46L-287.500000,66.300000C-287.500000,66.700000,-287.400000,67,-287.100000,67.300000C-286.800000,67.600000,-286.500000,67.700000,-286.100000,67.700000L-286.100000,67.700000L-282,67.700000C-281.600000,67.700000,-281.300000,67.600000,-281,67.300000C-280.700000,67,-280.600000,66.700000,-280.600000,66.300000ZM-248.700000,37.400000L-248.700000,37.400000L-246.800000,37.400000L-246.800000,47L-251.700000,47C-253.400000,47,-254.200000,47.900000,-254.200000,49.600000L-254.200000,49.600000L-254.200000,74.100000L-264.100000,74.100000L-264.100000,38.200000L-255.100000,38.200000L-255.100000,41.700000C-253.600000,38.800000,-251.500000,37.400000,-248.700000,37.400000ZM-229.200000,68.400000L-229.200000,68.400000L-226.300000,68.400000L-226.300000,74.800000L-233.200000,74.800000C-239.300000,74.800000,-242.300000,71.600000,-242.300000,65.100000L-242.300000,65.100000L-242.300000,30.300000L-232.400000,30.300000L-232.400000,38.100000L-226.200000,38.100000L-226.200000,45.200000L-232.400000,45.200000L-232.400000,64.800000C-232.400000,66.200000,-232.100000,67.100000,-231.600000,67.600000C-231.100000,68.200000,-230.300000,68.400000,-229.200000,68.400000ZM-220.300000,48.600000L-195.200000,48.600000L-195.200000,56.500000L-220.300000,56.500000L-220.300000,48.600000ZM-187.500000,26.400000L-177.200000,26.400000L-177.200000,74.100000L-187.500000,74.100000L-187.500000,26.400000ZM-143.400000,47.100000L-143.400000,47.100000L-143.400000,65.100000C-143.400000,71.600000,-146.400000,74.800000,-152.500000,74.800000L-152.500000,74.800000L-160.800000,74.800000C-166.900000,74.800000,-169.900000,71.600000,-169.900000,65.100000L-169.900000,65.100000L-169.900000,47.100000C-169.900000,40.600000,-166.900000,37.400000,-160.800000,37.400000L-160.800000,37.400000L-152.500000,37.400000C-146.400000,37.400000,-143.400000,40.700000,-143.400000,47.100000ZM-153.200000,67.200000L-153.200000,67.200000L-153.200000,45C-153.200000,44.600000,-153.300000,44.300000,-153.600000,44C-153.900000,43.700000,-154.200000,43.600000,-154.600000,43.600000L-154.600000,43.600000L-158.700000,43.600000C-159.100000,43.600000,-159.400000,43.700000,-159.700000,44C-160,44.300000,-160.100000,44.600000,-160.100000,45L-160.100000,45L-160.100000,67.200000C-160.100000,67.600000,-160,67.900000,-159.700000,68.200000C-159.400000,68.500000,-159.100000,68.600000,-158.700000,68.600000L-158.700000,68.600000L-154.600000,68.600000C-154.200000,68.600000,-153.900000,68.500000,-153.600000,68.200000C-153.400000,67.900000,-153.200000,67.600000,-153.200000,67.200000ZM-131.300000,35.200000L-139,35.200000L-139,26.400000L-113.200000,26.400000L-113.200000,35.200000L-120.900000,35.200000L-120.900000,74.100000L-131.200000,74.100000L-131.200000,35.200000Z" fill="url(#en7gqu6r71g713-fill)" stroke="none" stroke-width="1"/></g><g id="en7gqu6r71g714" transform="matrix(1.20730000000000 0 0 1.20730000000000 605 367)"><path id="en7gqu6r71g715" d="M-446.700000,15.100000L-446.700000,18.600000L-456.500000,18.600000L-456.500000,14.800000C-456.500000,14.400000,-456.600000,14.100000,-456.900000,13.800000C-457.200000,13.500000,-457.500000,13.400000,-457.900000,13.400000L-457.900000,13.400000L-462,13.400000C-462.400000,13.400000,-462.700000,13.500000,-463,13.800000C-463.300000,14.100000,-463.400000,14.400000,-463.400000,14.800000L-463.400000,14.800000L-463.400000,23.300000C-463.400000,23.700000,-463.300000,24,-463,24.300000C-462.700000,24.600000,-462.400000,24.700000,-462,24.700000L-462,24.700000L-455.400000,24.700000C-449.300000,24.800000,-446.300000,28,-446.300000,34.400000L-446.300000,34.400000L-446.300000,44.600000C-446.300000,51.100000,-449.300000,54.300000,-455.400000,54.300000L-455.400000,54.300000L-464.100000,54.300000C-470.200000,54.300000,-473.200000,51.100000,-473.200000,44.600000L-473.200000,44.600000L-473.200000,39.700000L-463.400000,39.700000L-463.400000,45C-463.400000,45.400000,-463.300000,45.700000,-463,46C-462.700000,46.300000,-462.400000,46.400000,-462,46.400000L-462,46.400000L-457.400000,46.400000C-457,46.400000,-456.700000,46.300000,-456.400000,46C-456.100000,45.700000,-456,45.400000,-456,45L-456,45L-456,35.600000C-456,35.200000,-456.100000,34.900000,-456.400000,34.600000C-456.700000,34.300000,-457,34.200000,-457.400000,34.200000L-457.400000,34.200000L-464,34.200000C-470.100000,34.200000,-473.100000,31,-473.100000,24.500000L-473.100000,24.500000L-473.100000,15C-473.100000,8.500000,-470.100000,5.300000,-464,5.300000L-464,5.300000L-455.800000,5.300000C-449.800000,5.400000,-446.700000,8.700000,-446.700000,15.100000L-446.700000,15.100000ZM-430.700000,17.100000L-422.400000,17.100000C-416.300000,17.100000,-413.300000,20.300000,-413.300000,26.800000L-413.300000,26.800000L-413.300000,38.400000L-430,38.400000L-430,46C-430,46.400000,-429.900000,46.700000,-429.600000,47C-429.300000,47.300000,-429,47.400000,-428.600000,47.400000L-428.600000,47.400000L-424.500000,47.400000C-424.100000,47.400000,-423.800000,47.300000,-423.500000,47C-423.200000,46.700000,-423.100000,46.400000,-423.100000,46L-423.100000,46L-423.100000,42L-413.200000,42L-413.200000,44.800000C-413.200000,51.300000,-416.200000,54.500000,-422.300000,54.500000L-422.300000,54.500000L-430.600000,54.500000C-436.700000,54.500000,-439.700000,51.300000,-439.700000,44.800000L-439.700000,44.800000L-439.700000,26.800000C-439.800000,20.400000,-436.800000,17.100000,-430.700000,17.100000L-430.700000,17.100000ZM-429.900000,25.400000L-429.900000,32L-423,32L-423,25.400000C-423,25,-423.100000,24.700000,-423.400000,24.400000C-423.700000,24.100000,-424,24,-424.400000,24L-424.400000,24L-428.500000,24C-428.900000,24,-429.200000,24.100000,-429.500000,24.400000C-429.800000,24.600000,-429.900000,25,-429.900000,25.400000L-429.900000,25.400000ZM-397.900000,25.700000L-397.900000,53.800000L-407.800000,53.800000L-407.800000,17.900000L-398.800000,17.900000L-398.800000,19.700000C-397.300000,18,-395,17.100000,-391.900000,17.100000L-391.900000,17.100000L-390.400000,17.100000C-384.300000,17.100000,-381.300000,20.300000,-381.300000,26.800000L-381.300000,26.800000L-381.300000,53.800000L-391.200000,53.800000L-391.200000,25.700000C-391.200000,25.300000,-391.300000,25,-391.600000,24.700000C-391.900000,24.400000,-392.200000,24.300000,-392.600000,24.300000L-392.600000,24.300000L-396.700000,24.300000C-397.100000,24.300000,-397.400000,24.400000,-397.700000,24.700000C-397.800000,24.900000,-397.900000,25.300000,-397.900000,25.700000L-397.900000,25.700000ZM-365.100000,31.300000L-357.500000,31.300000C-351.400000,31.300000,-348.400000,34.500000,-348.400000,41L-348.400000,41L-348.400000,44.800000C-348.400000,51.300000,-351.400000,54.500000,-357.500000,54.500000L-357.500000,54.500000L-365.700000,54.500000C-371.800000,54.500000,-374.800000,51.300000,-374.800000,44.800000L-374.800000,44.800000L-374.800000,42.500000L-365.700000,42.500000L-365.700000,45.700000C-365.700000,46.100000,-365.600000,46.400000,-365.300000,46.700000C-365,47,-364.700000,47.100000,-364.300000,47.100000L-364.300000,47.100000L-358.300000,47.100000C-357.900000,47.100000,-357.600000,47,-357.300000,46.700000C-357,46.400000,-356.900000,46.100000,-356.900000,45.700000L-356.900000,45.700000L-356.900000,41.300000C-356.900000,40.900000,-357,40.600000,-357.300000,40.300000C-357.600000,40,-357.900000,39.900000,-358.300000,39.900000L-358.300000,39.900000L-365.900000,39.900000C-372,39.900000,-375,36.700000,-375,30.200000L-375,30.200000L-375,26.900000C-375,20.400000,-372,17.200000,-365.900000,17.200000L-365.900000,17.200000L-358.200000,17.200000C-352.100000,17.200000,-349.100000,20.400000,-349.100000,26.900000L-349.100000,26.900000L-349.100000,28.200000L-358.200000,28.200000L-358.200000,25.900000C-358.200000,25.500000,-358.300000,25.200000,-358.600000,24.900000C-358.900000,24.600000,-359.200000,24.500000,-359.600000,24.500000L-359.600000,24.500000L-365.200000,24.500000C-365.600000,24.500000,-365.900000,24.600000,-366.200000,24.900000C-366.500000,25.200000,-366.600000,25.500000,-366.600000,25.900000L-366.600000,25.900000L-366.600000,29.800000C-366.600000,30.200000,-366.500000,30.500000,-366.200000,30.800000C-365.800000,31.100000,-365.500000,31.300000,-365.100000,31.300000L-365.100000,31.300000ZM-332.500000,13.400000C-333.600000,14.400000,-334.800000,14.900000,-336.300000,14.900000C-337.800000,14.900000,-339.100000,14.400000,-340.100000,13.300000C-341.200000,12.200000,-341.700000,11,-341.700000,9.500000C-341.700000,8,-341.200000,6.700000,-340.100000,5.700000C-339,4.600000,-337.700000,4.100000,-336.300000,4.100000C-334.900000,4.100000,-333.600000,4.600000,-332.500000,5.700000C-331.400000,6.800000,-330.900000,8,-330.900000,9.600000C-330.900000,11.100000,-331.500000,12.300000,-332.500000,13.400000ZM-331.400000,53.800000L-341.300000,53.800000L-341.300000,17.900000L-331.400000,17.900000L-331.400000,53.800000ZM-314.600000,25.700000L-314.600000,53.800000L-324.500000,53.800000L-324.500000,17.900000L-315.500000,17.900000L-315.500000,19.700000C-314,18,-311.700000,17.100000,-308.600000,17.100000L-308.600000,17.100000L-307.100000,17.100000C-301,17.100000,-298,20.300000,-298,26.800000L-298,26.800000L-298,53.800000L-307.900000,53.800000L-307.900000,25.700000C-307.900000,25.300000,-308,25,-308.300000,24.700000C-308.600000,24.400000,-308.900000,24.300000,-309.300000,24.300000L-309.300000,24.300000L-313.400000,24.300000C-313.800000,24.300000,-314.100000,24.400000,-314.400000,24.700000C-314.400000,24.900000,-314.600000,25.300000,-314.600000,25.700000L-314.600000,25.700000ZM-272.900000,17.900000L-264.600000,17.900000L-264.600000,56.600000C-264.600000,63.100000,-267.600000,66.300000,-273.700000,66.300000L-273.700000,66.300000L-281.100000,66.300000C-287.200000,66.300000,-290.200000,63.100000,-290.200000,56.600000L-290.200000,56.600000L-290.200000,55.400000L-281.300000,55.400000L-281.300000,57.800000C-281.300000,58.200000,-281.200000,58.500000,-280.900000,58.800000C-280.600000,59.100000,-280.300000,59.200000,-279.900000,59.200000L-279.900000,59.200000L-275.800000,59.200000C-275.400000,59.200000,-275.100000,59.100000,-274.800000,58.800000C-274.500000,58.500000,-274.400000,58.200000,-274.400000,57.800000L-274.400000,57.800000L-274.400000,50.400000C-275.900000,51.600000,-277.900000,52.200000,-280.400000,52.200000L-280.400000,52.200000L-281.900000,52.200000C-288,52.200000,-291,49,-291,42.500000L-291,42.500000L-291,26.900000C-291,20.400000,-288,17.200000,-281.900000,17.200000L-281.900000,17.200000L-280.400000,17.200000C-276.900000,17.200000,-274.300000,18.300000,-272.800000,20.600000L-272.800000,20.600000L-272.800000,17.900000ZM-274.400000,43.600000L-274.400000,43.600000L-274.400000,25.700000C-274.400000,25.300000,-274.500000,25,-274.800000,24.700000C-275.100000,24.400000,-275.400000,24.300000,-275.800000,24.300000L-275.800000,24.300000L-279.900000,24.300000C-280.300000,24.300000,-280.600000,24.400000,-280.900000,24.700000C-281.200000,25,-281.300000,25.300000,-281.300000,25.700000L-281.300000,25.700000L-281.300000,43.600000C-281.300000,44,-281.200000,44.300000,-280.900000,44.600000C-280.600000,44.900000,-280.300000,45,-279.900000,45L-279.900000,45L-275.800000,45C-275.400000,45,-275.100000,44.900000,-274.800000,44.600000C-274.600000,44.300000,-274.400000,44,-274.400000,43.600000ZM-242.700000,6.200000L-224.100000,6.200000C-218,6.200000,-215,9.400000,-215,15.900000L-215,15.900000L-215,25.400000C-215,31.900000,-218,35.100000,-224.100000,35.100000L-224.100000,35.100000L-232.400000,35.100000L-232.400000,53.800000L-242.700000,53.800000L-242.700000,6.200000ZM-225.200000,26.600000L-225.200000,26.600000L-225.200000,14.700000C-225.200000,14.300000,-225.300000,14,-225.600000,13.700000C-225.900000,13.400000,-226.200000,13.300000,-226.600000,13.300000L-226.600000,13.300000L-232.300000,13.300000L-232.300000,28L-226.600000,28C-226.200000,28,-225.900000,27.900000,-225.600000,27.600000C-225.400000,27.300000,-225.200000,27,-225.200000,26.600000ZM-200.300000,6.200000L-200.300000,53.900000L-210.200000,53.900000L-210.200000,6.200000L-200.300000,6.200000ZM-175.400000,20.500000L-175.400000,17.800000L-167.100000,17.800000L-167.100000,53.700000L-175.400000,53.700000L-175.400000,51C-176.900000,53.300000,-179.500000,54.400000,-183,54.400000L-183,54.400000L-184.500000,54.400000C-190.600000,54.400000,-193.600000,51.200000,-193.600000,44.700000L-193.600000,44.700000L-193.600000,26.700000C-193.600000,20.200000,-190.600000,17,-184.500000,17L-184.500000,17L-183,17C-179.400000,17.100000,-176.900000,18.300000,-175.400000,20.500000L-175.400000,20.500000ZM-176.900000,46L-176.900000,46L-176.900000,25.700000C-176.900000,25.300000,-177,25,-177.300000,24.700000C-177.600000,24.400000,-177.900000,24.300000,-178.300000,24.300000L-178.300000,24.300000L-182.400000,24.300000C-182.800000,24.300000,-183.100000,24.400000,-183.400000,24.700000C-183.700000,25,-183.800000,25.300000,-183.800000,25.700000L-183.800000,25.700000L-183.800000,46C-183.800000,46.400000,-183.700000,46.700000,-183.400000,47C-183.100000,47.300000,-182.800000,47.400000,-182.400000,47.400000L-182.400000,47.400000L-178.300000,47.400000C-177.900000,47.400000,-177.600000,47.300000,-177.300000,47C-177,46.700000,-176.900000,46.400000,-176.900000,46ZM-147.200000,48.100000L-147.200000,48.100000L-144.300000,48.100000L-144.300000,54.500000L-151.200000,54.500000C-157.300000,54.500000,-160.300000,51.300000,-160.300000,44.800000L-160.300000,44.800000L-160.300000,10.100000L-150.400000,10.100000L-150.400000,17.900000L-144.200000,17.900000L-144.200000,25L-150.400000,25L-150.400000,44.600000C-150.400000,46,-150.100000,46.900000,-149.600000,47.400000C-149.100000,47.900000,-148.300000,48.100000,-147.200000,48.100000ZM-123.100000,12.200000L-126,12.200000C-127.100000,12.200000,-127.900000,12.400000,-128.400000,12.900000C-128.900000,13.400000,-129.200000,14.300000,-129.200000,15.700000L-129.200000,15.700000L-129.200000,17.800000L-123,17.800000L-123,25.200000L-129.200000,25.200000L-129.200000,53.700000L-139.100000,53.700000L-139.100000,15.100000C-139.100000,8.600000,-136.100000,5.400000,-130,5.400000L-130,5.400000L-123.100000,5.400000L-123.100000,12.200000ZM-92.100000,26.900000L-92.100000,26.900000L-92.100000,44.900000C-92.100000,51.400000,-95.100000,54.600000,-101.200000,54.600000L-101.200000,54.600000L-109.500000,54.600000C-115.600000,54.600000,-118.600000,51.400000,-118.600000,44.900000L-118.600000,44.900000L-118.600000,26.900000C-118.600000,20.400000,-115.600000,17.200000,-109.500000,17.200000L-109.500000,17.200000L-101.200000,17.200000C-95.200000,17.100000,-92.100000,20.400000,-92.100000,26.900000ZM-102,46.900000L-102,46.900000L-102,24.700000C-102,24.300000,-102.100000,24,-102.400000,23.700000C-102.700000,23.400000,-103,23.300000,-103.400000,23.300000L-103.400000,23.300000L-107.500000,23.300000C-107.900000,23.300000,-108.200000,23.400000,-108.500000,23.700000C-108.800000,24,-108.900000,24.300000,-108.900000,24.700000L-108.900000,24.700000L-108.900000,46.900000C-108.900000,47.300000,-108.800000,47.600000,-108.500000,47.900000C-108.200000,48.200000,-107.900000,48.300000,-107.500000,48.300000L-107.500000,48.300000L-103.400000,48.300000C-103,48.300000,-102.700000,48.200000,-102.400000,47.900000C-102.100000,47.600000,-102,47.300000,-102,46.900000ZM-70.100000,17.100000L-70.100000,17.100000L-68.200000,17.100000L-68.200000,26.700000L-73,26.700000C-74.700000,26.700000,-75.500000,27.600000,-75.500000,29.300000L-75.500000,29.300000L-75.500000,53.800000L-85.400000,53.800000L-85.400000,17.900000L-76.400000,17.900000L-76.400000,21.400000C-75,18.500000,-72.900000,17.100000,-70.100000,17.100000ZM-32,17.100000L-31.300000,17.100000C-25.200000,17.100000,-22.200000,20.300000,-22.200000,26.800000L-22.200000,26.800000L-22.200000,53.800000L-32.100000,53.800000L-32.100000,25.700000C-32.100000,25.300000,-32.200000,25,-32.500000,24.700000C-32.800000,24.400000,-33.100000,24.300000,-33.500000,24.300000L-33.500000,24.300000L-36.700000,24.300000C-37.100000,24.300000,-37.400000,24.400000,-37.700000,24.700000C-38,25,-38.100000,25.300000,-38.100000,25.700000L-38.100000,25.700000L-38.100000,53.800000L-48,53.800000L-48,25.700000C-48,25.300000,-48.100000,25,-48.400000,24.700000C-48.700000,24.400000,-49,24.300000,-49.400000,24.300000L-49.400000,24.300000L-52.600000,24.300000C-53,24.300000,-53.300000,24.400000,-53.600000,24.700000C-53.900000,25,-54,25.300000,-54,25.700000L-54,25.700000L-54,53.800000L-63.900000,53.800000L-63.900000,17.900000L-54.900000,17.900000L-54.900000,19.700000C-53.400000,18,-51.100000,17.100000,-48,17.100000L-48,17.100000L-47.300000,17.100000C-43.700000,17.100000,-41.100000,18.200000,-39.700000,20.500000L-39.700000,20.500000C-38.100000,18.300000,-35.500000,17.100000,-32,17.100000L-32,17.100000Z" fill="url(#en7gqu6r71g715-fill)" stroke="none" stroke-width="1"/></g><g id="en7gqu6r71g716_tr" transform="translate(305.239273,151.551674) rotate(0)"><g id="en7gqu6r71g716" transform="translate(-305.239273,-151.551674)"><g id="en7gqu6r71g717" transform="matrix(2.62655000000000 0 0 2.62655000000000 -251.45800000000000 -118.19499999999999)"><g id="en7gqu6r71g718"><path id="en7gqu6r71g719" d="M246.400000,107.400000L246.400000,68.600000L225,56.900000L203.700000,56.900000L235.900000,74.500000L235.900000,113.300000L246.400000,107.400000ZM190.700000,129.400000L224.900000,148.500000L224.800000,148.500000L225.300000,148.900000L247.300000,136.700000L257.900000,119L225.600000,137.100000L190.800000,117.800000L190.700000,129.400000L190.700000,129.400000Z" fill="rgb(254,87,0)" stroke="none" stroke-width="1"/><path id="en7gqu6r71g720" d="M233.400000,117.900000L233.500000,117.900000L214.400000,128.400000L224.900000,134.300000L259.600000,114.800000L259.600000,90.200000L249,72.500000L249,108.800000L233.400000,117.900000ZM233.100000,75.800000L198.400000,56.500000L176.400000,68.700000L165.800000,86.500000L198.600000,68.300000L214.500000,77.200000L214.200000,77.200000L233,87.600000L233,75.800000L233.100000,75.800000Z" fill="rgb(41,88,245)" stroke="none" stroke-width="1"/><path id="en7gqu6r71g721" d="M199,71.200000L164.300000,90.700000L164.300000,115.100000L174.900000,132.800000L174.900000,96.500000L190.500000,87.600000L209.600000,77L199,71.200000Z" fill="rgb(254,87,0)" stroke="none" stroke-width="1"/><path id="en7gqu6r71g722" d="M177.500000,98L177.500000,136.800000L198.900000,148.500000L220.300000,148.500000L188,130.900000L188,92.100000L177.500000,98Z" fill="rgb(41,88,245)" stroke="none" stroke-width="1"/></g></g></g></g></svg>